<?xml version="1.0" encoding="iso-8859-1"?>
<!-- Generator: Adobe Illustrator 19.0.0, SVG Export Plug-In . SVG Version: 6.00 Build 0)  -->
<svg version="1.1" id="Capa_1" xmlns="http://www.w3.org/2000/svg" xmlns:xlink="http://www.w3.org/1999/xlink" x="0px" y="0px"
	 viewBox="0 0 512 512" style="enable-background:new 0 0 512 512;" xml:space="preserve">
<g>
	<g>
		<polygon points="181,178.715 157.645,241 204.355,241 		"/>
	</g>
</g>
<g>
	<g>
		<path d="M376,241c-20.933,0-38.569,19.146-43.579,45h87.158C414.569,260.146,396.933,241,376,241z"/>
	</g>
</g>
<g>
	<g>
		<path d="M467,0H45C20.186,0,0,20.186,0,45v422c0,24.814,20.186,45,45,45h422c24.814,0,45-20.186,45-45V45
			C512,20.186,491.814,0,467,0z M276.273,390.048C274.53,390.692,272.758,391,271,391c-6.064,0-11.792-3.706-14.048-9.727
			L215.603,271h-69.207l-41.349,110.273c-2.915,7.764-11.602,11.602-19.321,8.774c-7.749-2.915-11.675-11.558-8.774-19.321l90-240
			c4.395-11.689,23.701-11.689,28.096,0l90,240C287.948,378.49,284.022,387.133,276.273,390.048z M436,316H332.421
			c5.01,25.854,22.646,45,43.579,45c11.646,0,20.42-5.947,25.737-10.942c6.079-5.64,15.542-5.361,21.211,0.674
			c5.669,6.05,5.361,15.542-0.674,21.211C408.988,384.408,392.992,391,376,391c-41.353,0-75-40.371-75-90c0-49.629,33.647-90,75-90
			c41.353,0,75,40.371,75,90C451,309.291,444.291,316,436,316z"/>
	</g>
</g>
<g>
</g>
<g>
</g>
<g>
</g>
<g>
</g>
<g>
</g>
<g>
</g>
<g>
</g>
<g>
</g>
<g>
</g>
<g>
</g>
<g>
</g>
<g>
</g>
<g>
</g>
<g>
</g>
<g>
</g>
</svg>
