<?xml version="1.0" encoding="iso-8859-1"?>
<!-- Generator: Adobe Illustrator 19.0.0, SVG Export Plug-In . SVG Version: 6.00 Build 0)  -->
<svg version="1.1" id="Capa_1" xmlns="http://www.w3.org/2000/svg" xmlns:xlink="http://www.w3.org/1999/xlink" x="0px" y="0px"
	 viewBox="0 0 512 512" style="enable-background:new 0 0 512 512;" xml:space="preserve">
<g>
	<g>
		<polygon points="181,178.715 146.397,271 215.603,271 		"/>
	</g>
</g>
<g>
	<g>
		<path d="M467,0H45C20.186,0,0,20.186,0,45v422c0,24.814,20.186,45,45,45h422c24.814,0,45-20.186,45-45V45
			C512,20.186,491.814,0,467,0z M276.273,390.048C274.53,390.692,272.758,391,271,391c-6.064,0-11.792-3.706-14.048-9.727
			L226.853,301h-91.707l-30.099,80.273c-2.93,7.749-11.572,11.616-19.321,8.774c-7.749-2.915-11.675-11.558-8.774-19.321l90-240
			c4.395-11.689,23.701-11.689,28.096,0l90,240C287.948,378.49,284.022,387.133,276.273,390.048z M436,331v45
			c0,8.291-6.709,15-15,15c-6.161,0-11.428-3.724-13.737-9.031C398.132,387.591,387.492,391,376,391c-33.091,0-60-26.909-60-60V226
			c0-8.291,6.709-15,15-15c8.291,0,15,6.709,15,15v105c0,16.538,13.462,30,30,30c16.538,0,30-13.462,30-30V226
			c0-8.291,6.709-15,15-15c8.291,0,15,6.709,15,15V331z"/>
	</g>
</g>
<g>
</g>
<g>
</g>
<g>
</g>
<g>
</g>
<g>
</g>
<g>
</g>
<g>
</g>
<g>
</g>
<g>
</g>
<g>
</g>
<g>
</g>
<g>
</g>
<g>
</g>
<g>
</g>
<g>
</g>
</svg>
