<?xml version="1.0" encoding="iso-8859-1"?>
<!-- Generator: Adobe Illustrator 19.0.0, SVG Export Plug-In . SVG Version: 6.00 Build 0)  -->
<svg version="1.1" id="Capa_1" xmlns="http://www.w3.org/2000/svg" xmlns:xlink="http://www.w3.org/1999/xlink" x="0px" y="0px"
	 viewBox="0 0 512 512" style="enable-background:new 0 0 512 512;" xml:space="preserve">
<path style="fill:#994C0F;" d="M316,0H196c-24.901,0-45,20.099-45,45v392c0,8.399,6.599,15,15,15h180c8.401,0,15-6.601,15-15V45
	C361,20.099,340.901,0,316,0z"/>
<path style="fill:#787780;" d="M346,422H166c-24.901,0-45,20.099-45,45v30c0,8.399,6.599,15,15,15h240c8.401,0,15-6.601,15-15v-30
	C391,442.099,370.901,422,346,422z"/>
<path style="fill:#713708;" d="M361,45v392c0,8.399-6.599,15-15,15h-90V0h60C340.901,0,361,20.099,361,45z"/>
<path style="fill:#57555C;" d="M391,467v30c0,8.399-6.599,15-15,15H256v-90h90C370.901,422,391,442.099,391,467z"/>
<g>
	<path style="fill:#BF6015;" d="M61,135c-16.538,0-30-13.462-30-30s13.462-30,30-30h120c16.538,0,30,13.462,30,30s-13.462,30-30,30
		H61z"/>
	<path style="fill:#BF6015;" d="M91,286c-16.538,0-30-13.462-30-30s13.462-30,30-30h90c16.538,0,30,13.462,30,30s-13.462,30-30,30
		H91z"/>
</g>
<g>
	<path style="fill:#994C10;" d="M331,195c-16.538,0-30-13.462-30-30s13.462-30,30-30h120c16.538,0,30,13.462,30,30s-13.462,30-30,30
		H331z"/>
	<path style="fill:#994C10;" d="M451,406c-16.538,0-30-10.795-30-30v-30h-90c-16.538,0-30-13.462-30-30s13.462-30,30-30h120
		c16.538,0,30,13.462,30,30v60C481,392.538,467.538,406,451,406z"/>
</g>
<g>
</g>
<g>
</g>
<g>
</g>
<g>
</g>
<g>
</g>
<g>
</g>
<g>
</g>
<g>
</g>
<g>
</g>
<g>
</g>
<g>
</g>
<g>
</g>
<g>
</g>
<g>
</g>
<g>
</g>
</svg>
