<?xml version="1.0" encoding="iso-8859-1"?>
<!-- Generator: Adobe Illustrator 19.0.0, SVG Export Plug-In . SVG Version: 6.00 Build 0)  -->
<svg version="1.1" id="Capa_1" xmlns="http://www.w3.org/2000/svg" xmlns:xlink="http://www.w3.org/1999/xlink" x="0px" y="0px"
	 viewBox="0 0 512 512" style="enable-background:new 0 0 512 512;" xml:space="preserve">
<g>
	<g>
		<polygon points="226,178.715 202.645,241 249.355,241 		"/>
	</g>
</g>
<g>
	<g>
		<path d="M467,0H45C20.186,0,0,20.186,0,45v422c0,24.814,20.186,45,45,45h422c24.814,0,45-20.186,45-45V45
			C512,20.186,491.814,0,467,0z M321.273,390.048c-7.866,2.908-16.443-1.095-19.321-8.774L260.603,271h-69.207l-41.349,110.273
			c-2.915,7.764-11.602,11.602-19.321,8.774c-7.749-2.915-11.675-11.558-8.774-19.321l90-240c4.395-11.689,23.701-11.689,28.096,0
			l90,240C332.948,378.49,329.022,387.133,321.273,390.048z M391,376c0,8.291-6.709,15-15,15c-8.291,0-15-6.709-15-15V256
			c0-8.291,6.709-15,15-15c8.291,0,15,6.709,15,15V376z M376,211c-8.284,0-15-6.716-15-15s6.716-15,15-15s15,6.716,15,15
			S384.284,211,376,211z"/>
	</g>
</g>
<g>
</g>
<g>
</g>
<g>
</g>
<g>
</g>
<g>
</g>
<g>
</g>
<g>
</g>
<g>
</g>
<g>
</g>
<g>
</g>
<g>
</g>
<g>
</g>
<g>
</g>
<g>
</g>
<g>
</g>
</svg>
